<?xml version="1.0" encoding="UTF-8"?>
<svg version="1.1" xmlns="http://www.w3.org/2000/svg" width="300" height="225">
<path d="M0 0 C99 0 198 0 300 0 C300 74.25 300 148.5 300 225 C201 225 102 225 0 225 C0 150.75 0 76.5 0 0 Z " fill="#54AA01" transform="translate(0,0)"/>
<path d="M0 0 C37.62 0 75.24 0 114 0 C114 40.26 114 80.52 114 122 C76.05 122 38.1 122 -1 122 C-1 117.05 -1 112.1 -1 107 C-2.32 107 -3.64 107 -5 107 C-5 108.98 -5 110.96 -5 113 C-6.98 113 -8.96 113 -11 113 C-11 110.36 -11 107.72 -11 105 C-11.57105469 104.93683594 -12.14210937 104.87367187 -12.73046875 104.80859375 C-24.91210057 102.96876064 -34.9586724 96.05692845 -44 88 C-44.75925781 87.33484375 -45.51851562 86.6696875 -46.30078125 85.984375 C-57.2363427 75.78540577 -63.65518829 62.31200278 -70 49 C-54.99568824 34.59706346 -32.97593919 17 -11 17 C-11 14.69 -11 12.38 -11 10 C-9.02 10 -7.04 10 -5 10 C-5 11.98 -5 13.96 -5 16 C-3.68 16 -2.36 16 -1 16 C-1 18.64 -1 21.28 -1 24 C-2.485 24.495 -2.485 24.495 -4 25 C-4.33 28.3 -4.66 31.6 -5 35 C-3.68 35 -2.36 35 -1 35 C-1 37.97 -1 40.94 -1 44 C-2.32 44.33 -3.64 44.66 -5 45 C-4.896875 46.27875 -4.79375 47.5575 -4.6875 48.875 C-4.62949219 49.59429687 -4.57148437 50.31359375 -4.51171875 51.0546875 C-4.12606964 53.39519216 -4.12606964 53.39519216 -1 55 C-0.70703125 57.3828125 -0.70703125 57.3828125 -0.8125 60.125 C-0.85310547 61.49011719 -0.85310547 61.49011719 -0.89453125 62.8828125 C-0.92933594 63.58148438 -0.96414062 64.28015625 -1 65 C-2.98 64.505 -2.98 64.505 -5 64 C-4.9131252 65.95917659 -4.80495488 67.91741871 -4.6875 69.875 C-4.62949219 70.96554688 -4.57148437 72.05609375 -4.51171875 73.1796875 C-4.25841797 74.57574219 -4.25841797 74.57574219 -4 76 C-2.515 76.99 -2.515 76.99 -1 78 C-0.59156077 80.71203652 -0.86663133 83.2437142 -1 86 C-2.32 86 -3.64 86 -5 86 C-5 89.63 -5 93.26 -5 97 C-3.68 97 -2.36 97 -1 97 C-1 94.03 -1 91.06 -1 88 C0.65 87.67 2.3 87.34 4 87 C4 90.63 4 94.26 4 98 C2.68 98 1.36 98 0 98 C0 100.97 0 103.94 0 107 C1.32 107 2.64 107 4 107 C4 108.98 4 110.96 4 113 C5.65 113 7.3 113 9 113 C9 111.02 9 109.04 9 107 C9.63389648 106.95512451 10.26779297 106.91024902 10.92089844 106.86401367 C27.6763543 105.72287465 27.6763543 105.72287465 44 102 C44.70044434 101.80011475 45.40088867 101.60022949 46.12255859 101.39428711 C65.06800708 95.9325192 83.57023953 87.95317365 100 77 C97.30102779 75.3384368 94.5893945 73.69872629 91.875 72.0625 C91.11445313 71.59392578 90.35390625 71.12535156 89.5703125 70.64257812 C83.69432554 67.10257036 83.69432554 67.10257036 77 66 C75.12614837 66.99490889 75.12614837 66.99490889 73.625 68.75 C56.83034549 84.77689888 32.57114146 98.35180808 9 98 C9 94.7 9 91.4 9 88 C10.0621875 87.80664062 11.124375 87.61328125 12.21875 87.4140625 C22.67188487 85.49422977 22.67188487 85.49422977 33 83 C27.54485252 74.59802044 21.66714613 66.12294832 12.4375 61.6875 C10.46484375 60.59375 10.46484375 60.59375 9 59 C8.31842768 54.92129949 8.52977888 51.09484227 9 47 C12.30915581 47.61445175 14.39416703 48.78168782 17.0625 50.8125 C17.73410156 51.31394531 18.40570313 51.81539062 19.09765625 52.33203125 C21.06675468 54.05853028 22.50712885 55.8560324 24 58 C27.39192363 57.40716379 29.2107757 56.23256811 31.75 53.9375 C32.36359375 53.38964844 32.9771875 52.84179688 33.609375 52.27734375 C34.06828125 51.85582031 34.5271875 51.43429688 35 51 C32.7310972 45.46727446 28.0719795 42.8250663 23 40 C19.55838982 38.72278022 16.13426466 37.67780732 12.58984375 36.7265625 C10 36 10 36 9 35 C8.92773498 33.14712498 8.9161878 31.29166122 8.9375 29.4375 C8.94652344 28.42558594 8.95554687 27.41367187 8.96484375 26.37109375 C8.97644531 25.58863281 8.98804688 24.80617188 9 24 C25.53256408 27.03097008 41.72775129 35.36630405 52 49 C51.90627725 53.63501591 48.05836065 56.84975727 45 60 C41.49844989 63.27692237 37.99320849 66.33786101 34 69 C35.19976433 72.08510827 36.50002556 75.05047042 38 78 C50.34103891 70.70330209 60.0255097 61.14515648 70 51 C68.22055838 47.18462067 66.06193097 44.92880354 63 42 C62.21882813 41.13568359 62.21882813 41.13568359 61.421875 40.25390625 C52.67021493 30.79830831 41.41769429 23.47917515 29 20 C28.06285156 19.71640625 27.12570313 19.4328125 26.16015625 19.140625 C20.76712891 17.57228234 15.5733318 16.61925909 10 16 C9 15 9 15 8.9375 12.4375 C8.958125 11.633125 8.97875 10.82875 9 10 C7.35 10 5.7 10 4 10 C4 11.65 4 13.3 4 15 C2.68 15 1.36 15 0 15 C0 10.05 0 5.1 0 0 Z " fill="#FDFEFB" transform="translate(127,23)"/>
<path d="M0 0 C0.33 0 0.66 0 1 0 C1 4.95 1 9.9 1 15 C2.32 15 3.64 15 5 15 C5 13.35 5 11.7 5 10 C6.65 10 8.3 10 10 10 C10.33 11.65 10.66 13.3 11 15 C12.03898437 15.18175781 13.07796875 15.36351562 14.1484375 15.55078125 C18.44278957 16.31562079 22.72341023 17.14172612 27 18 C27.91136719 18.18175781 28.82273438 18.36351563 29.76171875 18.55078125 C42.09968617 21.63003628 52.46802732 29.83661476 61.4140625 38.51953125 C63.84034404 40.84685568 66.37423776 42.90569564 69 45 C70.8125 47.25 70.8125 47.25 72 49 C69.76526575 54.03338646 65.97676763 57.40571557 62.125 61.25 C60.98502563 62.38973267 60.98502563 62.38973267 59.82202148 63.55249023 C45.07950615 78 45.07950615 78 39 78 C37.67578125 76.57421875 37.67578125 76.57421875 36.3125 74.6875 C35.62607422 73.76517578 35.62607422 73.76517578 34.92578125 72.82421875 C34.62027344 72.22222656 34.31476563 71.62023437 34 71 C35.12436254 67.62691239 36.07342733 66.84876903 38.75 64.625 C41.98867934 61.87790592 45.03598276 59.04635105 48 56 C48.78375 55.319375 49.5675 54.63875 50.375 53.9375 C52.22742387 52.18667466 52.22742387 52.18667466 51.86328125 50.17578125 C48.03713215 40.53250049 35.98680878 34.04439011 27 30 C21.41931792 27.74628591 15.73088325 25.83166244 10 24 C10.33 27.63 10.66 31.26 11 35 C11.96679688 35.268125 12.93359375 35.53625 13.9296875 35.8125 C22.33054776 38.28575648 30.14559639 41.07114113 36 48 C36 52 36 52 34.390625 53.95703125 C33.33101562 54.87548828 33.33101562 54.87548828 32.25 55.8125 C31.55390625 56.43769531 30.8578125 57.06289062 30.140625 57.70703125 C28 59 28 59 25.87109375 58.87109375 C23.36222907 57.70308368 22.22334429 55.78487276 20.5703125 53.6328125 C17.60151748 50.54585649 13.78717769 48.92185137 10 47 C10 50.96 10 54.92 10 59 C11.65 59.66 13.3 60.32 15 61 C22.51190382 66.82112161 30.73035379 73.88271731 34 83 C31.9170757 83.64715133 29.83364461 84.29267166 27.75 84.9375 C26.00976562 85.47697266 26.00976562 85.47697266 24.234375 86.02734375 C19.2153735 87.53668116 15.29220494 88.10177317 10 88 C10 91.3 10 94.6 10 98 C33.90306446 95.80288789 60.0075934 84.02859885 76.58251953 66.30810547 C78 65 78 65 80.6015625 64.99609375 C85.26157004 66.37267069 89.18616012 68.63404179 93.375 71.0625 C94.20644531 71.53494141 95.03789062 72.00738281 95.89453125 72.49414062 C97.9344349 73.65477546 99.96922018 74.82349773 102 76 C98.52922617 79.94077445 94.54031179 82.24545645 90 84.75 C89.21906982 85.18320557 88.43813965 85.61641113 87.63354492 86.06274414 C79.42179489 90.49834137 70.85727304 93.88375123 62.13671875 97.17163086 C60.1818954 97.92948228 58.25494284 98.7582357 56.33203125 99.59375 C41.33672303 105.92236777 26.05091596 107.37088124 10 107 C10 108.98 10 110.96 10 113 C8.35 113 6.7 113 5 113 C5 111.02 5 109.04 5 107 C3.68 107 2.36 107 1 107 C1 104.03 1 101.06 1 98 C2.32 98 3.64 98 5 98 C5 94.37 5 90.74 5 87 C3.02 87.495 3.02 87.495 1 88 C0.67 90.97 0.34 93.94 0 97 C-1.32 97 -2.64 97 -4 97 C-4 93.37 -4 89.74 -4 86 C-2.68 86 -1.36 86 0 86 C-0.103125 84.72125 -0.20625 83.4425 -0.3125 82.125 C-0.37050781 81.40570313 -0.42851563 80.68640625 -0.48828125 79.9453125 C-0.87393036 77.60480784 -0.87393036 77.60480784 -4 76 C-4.29296875 73.1796875 -4.29296875 73.1796875 -4.1875 69.875 C-4.16042969 68.77929688 -4.13335937 67.68359375 -4.10546875 66.5546875 C-4.07066406 65.71164063 -4.03585938 64.86859375 -4 64 C-2.68 64.33 -1.36 64.66 0 65 C-0.0870005 63.37399059 -0.1951781 61.74910322 -0.3125 60.125 C-0.37050781 59.22007813 -0.42851563 58.31515625 -0.48828125 57.3828125 C-0.7882039 54.63778399 -0.7882039 54.63778399 -4 53 C-4.40843923 50.28796348 -4.13336867 47.7562858 -4 45 C-2.515 44.505 -2.515 44.505 -1 44 C-0.67 41.03 -0.34 38.06 0 35 C-1.32 35 -2.64 35 -4 35 C-4 31.7 -4 28.4 -4 25 C-2.68 24.67 -1.36 24.34 0 24 C0 21.36 0 18.72 0 16 C-1.32 15.67 -2.64 15.34 -4 15 C-2.68 15 -1.36 15 0 15 C0 10.05 0 5.1 0 0 Z " fill="#53A803" transform="translate(126,23)"/>
<path d="M0 0 C1.98 0 3.96 0 6 0 C6 1.98 6 3.96 6 6 C7.32 6 8.64 6 10 6 C10 8.64 10 11.28 10 14 C9.01 14.33 8.02 14.66 7 15 C6.67 18.3 6.34 21.6 6 25 C7.32 25 8.64 25 10 25 C10 27.97 10 30.94 10 34 C8.68 34.33 7.36 34.66 6 35 C6.103125 36.27875 6.20625 37.5575 6.3125 38.875 C6.37050781 39.59429687 6.42851563 40.31359375 6.48828125 41.0546875 C6.87393036 43.39519216 6.87393036 43.39519216 10 45 C10.29296875 47.3828125 10.29296875 47.3828125 10.1875 50.125 C10.14689453 51.49011719 10.14689453 51.49011719 10.10546875 52.8828125 C10.07066406 53.58148438 10.03585938 54.28015625 10 55 C8.02 54.505 8.02 54.505 6 54 C6.0868748 55.95917659 6.19504512 57.91741871 6.3125 59.875 C6.37050781 60.96554688 6.42851563 62.05609375 6.48828125 63.1796875 C6.74158203 64.57574219 6.74158203 64.57574219 7 66 C8.485 66.99 8.485 66.99 10 68 C10.40843923 70.71203652 10.13336867 73.2437142 10 76 C8.68 76 7.36 76 6 76 C6 79.63 6 83.26 6 87 C7.32 87 8.64 87 10 87 C10 84.03 10 81.06 10 78 C11.65 77.67 13.3 77.34 15 77 C15 80.63 15 84.26 15 88 C13.68 88 12.36 88 11 88 C11 90.97 11 93.94 11 97 C12.32 97 13.64 97 15 97 C15 98.98 15 100.96 15 103 C14.67 103 14.34 103 14 103 C14 101.35 14 99.7 14 98 C13.01 98 12.02 98 11 98 C11 102.62 11 107.24 11 112 C10.67 112 10.34 112 10 112 C10 107.05 10 102.1 10 97 C8.68 97 7.36 97 6 97 C6 98.98 6 100.96 6 103 C4.02 103 2.04 103 0 103 C0 100.36 0 97.72 0 95 C-0.57105469 94.93683594 -1.14210937 94.87367187 -1.73046875 94.80859375 C-13.91210057 92.96876064 -23.9586724 86.05692845 -33 78 C-33.75925781 77.33484375 -34.51851562 76.6696875 -35.30078125 75.984375 C-46.2363427 65.78540577 -52.65518829 52.31200278 -59 39 C-43.99568824 24.59706346 -21.97593919 7 0 7 C0 4.69 0 2.38 0 0 Z " fill="#F9FBF5" transform="translate(116,33)"/>
<path d="M0 0 C1.65 0 3.3 0 5 0 C5.33 1.65 5.66 3.3 6 5 C7.03898438 5.18175781 8.07796875 5.36351562 9.1484375 5.55078125 C13.44278957 6.31562079 17.72341023 7.14172612 22 8 C22.91136719 8.18175781 23.82273438 8.36351562 24.76171875 8.55078125 C37.09968617 11.63003628 47.46802732 19.83661476 56.4140625 28.51953125 C58.84034404 30.84685568 61.37423776 32.90569564 64 35 C65.8125 37.25 65.8125 37.25 67 39 C64.76526575 44.03338646 60.97676763 47.40571557 57.125 51.25 C56.36501709 52.00982178 55.60503418 52.76964355 54.82202148 53.55249023 C40.07950615 68 40.07950615 68 34 68 C32.67578125 66.57421875 32.67578125 66.57421875 31.3125 64.6875 C30.62607422 63.76517578 30.62607422 63.76517578 29.92578125 62.82421875 C29.62027344 62.22222656 29.31476563 61.62023437 29 61 C30.12436254 57.62691239 31.07342733 56.84876903 33.75 54.625 C36.98867934 51.87790592 40.03598276 49.04635105 43 46 C43.78375 45.319375 44.5675 44.63875 45.375 43.9375 C47.22742387 42.18667466 47.22742387 42.18667466 46.86328125 40.17578125 C43.03713215 30.53250049 30.98680878 24.04439011 22 20 C16.41931792 17.74628591 10.73088325 15.83166244 5 14 C5.33 17.63 5.66 21.26 6 25 C6.96679688 25.268125 7.93359375 25.53625 8.9296875 25.8125 C17.33054776 28.28575648 25.14559639 31.07114113 31 38 C31 42 31 42 29.390625 43.95703125 C28.33101562 44.87548828 28.33101562 44.87548828 27.25 45.8125 C26.55390625 46.43769531 25.8578125 47.06289062 25.140625 47.70703125 C23 49 23 49 20.87109375 48.87109375 C18.36222907 47.70308368 17.22334429 45.78487276 15.5703125 43.6328125 C12.60151748 40.54585649 8.78717769 38.92185137 5 37 C5 40.96 5 44.92 5 49 C4.67 49 4.34 49 4 49 C3.67 45.7 3.34 42.4 3 39 C2.34 41.31 1.68 43.62 1 46 C0.67 46 0.34 46 0 46 C0 42.04 0 38.08 0 34 C-1.32 34 -2.64 34 -4 34 C-4 31.03 -4 28.06 -4 25 C-2.68 25 -1.36 25 0 25 C0 21.37 0 17.74 0 14 C-1.32 14 -2.64 14 -4 14 C-4 11.03 -4 8.06 -4 5 C-2.68 5 -1.36 5 0 5 C0 3.35 0 1.7 0 0 Z " fill="#53A804" transform="translate(131,33)"/>
<path d="M0 0 C3.135 -0.061875 6.27 -0.12375 9.5 -0.1875 C10.95696289 -0.22846802 10.95696289 -0.22846802 12.44335938 -0.27026367 C18.59402035 -0.32844222 24.76563845 0.06220172 29.56030273 4.41723633 C34.98151026 10.64763668 34.515124 17.12735023 34 25 C32.32064097 30.43322039 28.63466559 33.8597776 24 37 C19 39 19 39 0 39 C0 26.13 0 13.26 0 0 Z " fill="#F9FBF4" transform="translate(192,165)"/>
<path d="M0 0 C0 3.3 0 6.6 0 10 C-1.27875 10.65226562 -2.5575 11.30453125 -3.875 11.9765625 C-5.58353173 12.85899098 -7.29185393 13.74182522 -9 14.625 C-9.83917969 15.05167969 -10.67835937 15.47835937 -11.54296875 15.91796875 C-17.11825242 18.81365872 -22.10227361 22.06505991 -27 26 C-26.67 27.65 -26.34 29.3 -26 31 C-24.19015625 31.05607422 -24.19015625 31.05607422 -22.34375 31.11328125 C-20.72913822 31.17899219 -19.11455622 31.24543771 -17.5 31.3125 C-16.70851563 31.33505859 -15.91703125 31.35761719 -15.1015625 31.38085938 C-9.49673929 31.63353583 -5.16173473 32.79205613 0 35 C0 37.64 0 40.28 0 43 C-1.7074998 41.71937515 -3.37373596 40.38232443 -5 39 C-5 38.34 -5 37.68 -5 37 C-5.96421875 37.2165625 -6.9284375 37.433125 -7.921875 37.65625 C-9.18515625 37.9346875 -10.4484375 38.213125 -11.75 38.5 C-13.00296875 38.7784375 -14.2559375 39.056875 -15.546875 39.34375 C-19 40 -19 40 -23 40 C-16.57774359 47.08662776 -8.40181284 52.51903315 0 57 C0 60.3 0 63.6 0 67 C-11.87486758 65.16823851 -21.54176558 55.40924269 -28.625 46.3125 C-40.14818023 30.34640345 -40.14818023 30.34640345 -39.90625 24.8828125 C-34.78594654 14.24494066 -19.52907734 5.4349617 -8.8125 1.375 C-5.52753688 0.27496627 -3.55754438 0 0 0 Z " fill="#53A906" transform="translate(116,50)"/>
<path d="M0 0 C1.02802734 0.00322266 2.05605469 0.00644531 3.11523438 0.00976562 C4.72301758 0.02233398 4.72301758 0.02233398 6.36328125 0.03515625 C7.44673828 0.03966797 8.53019531 0.04417969 9.64648438 0.04882812 C12.3229721 0.06061882 14.99934902 0.07707562 17.67578125 0.09765625 C17.700429 5.63354158 17.71861621 11.16939525 17.73071289 16.70532227 C17.73575369 18.59009355 17.74258623 20.4748609 17.7512207 22.35961914 C17.76329742 25.06267261 17.76901193 27.76567456 17.7734375 30.46875 C17.77859879 31.31666611 17.78376007 32.16458221 17.78907776 33.03819275 C17.7892732 35.05836693 17.73784336 37.07843559 17.67578125 39.09765625 C16.67578125 40.09765625 16.67578125 40.09765625 14.86328125 40.23046875 C14.14140625 40.22789062 13.41953125 40.2253125 12.67578125 40.22265625 C11.95390625 40.22523438 11.23203125 40.2278125 10.48828125 40.23046875 C8.67578125 40.09765625 8.67578125 40.09765625 7.67578125 39.09765625 C7.58794583 36.87910361 7.56883516 34.65777129 7.578125 32.4375 C7.57953995 31.7730336 7.5809549 31.1085672 7.58241272 30.42396545 C7.58802607 28.29431726 7.60058071 26.16477286 7.61328125 24.03515625 C7.61829454 22.59440256 7.62285774 21.15364722 7.62695312 19.71289062 C7.6379998 16.17444523 7.65527333 12.63606086 7.67578125 9.09765625 C6.09156387 9.13091272 4.50808748 9.20055317 2.92578125 9.28515625 C2.0440625 9.31996094 1.16234375 9.35476562 0.25390625 9.390625 C-3.35933142 10.38152806 -4.40507428 11.93095827 -6.32421875 15.09765625 C-6.95679045 17.98134145 -6.95679045 17.98134145 -6.93359375 21.0546875 C-6.96582031 22.16650391 -6.99804688 23.27832031 -7.03125 24.42382812 C-7.05251953 26.14956055 -7.05251953 26.14956055 -7.07421875 27.91015625 C-7.10386719 29.07998047 -7.13351563 30.24980469 -7.1640625 31.45507812 C-7.23461584 34.33600634 -7.28738604 37.21613203 -7.32421875 40.09765625 C-13.4765625 40.1953125 -13.4765625 40.1953125 -15.32421875 40.09765625 C-17.94101314 37.48086186 -16.55905839 30.05046582 -16.57421875 26.53515625 C-16.59484375 25.36662109 -16.61546875 24.19808594 -16.63671875 22.99414062 C-16.66691113 16.30275337 -16.31197066 11.13006963 -13.32421875 5.09765625 C-9.09126689 0.97052819 -5.79870115 -0.03203702 0 0 Z " fill="#F4F9EB" transform="translate(32.32421875,163.90234375)"/>
<path d="M0 0 C3.17625 -0.0825 6.3525 -0.165 9.625 -0.25 C10.6145166 -0.28641602 11.6040332 -0.32283203 12.62353516 -0.36035156 C18.43180489 -0.43314573 21.53991344 0.21830848 26 4 C27.64156736 5.64156736 27.28815992 7.49215801 27.375 9.75 C27.36325306 13.86730122 27.28797314 14.66163155 24.5 17.9375 C23.2625 18.9584375 23.2625 18.9584375 22 20 C22 23.97492342 23.4713655 25.25284131 25.875 28.375 C28.53175432 31.83163735 30.57241435 34.86751521 32 39 C28.36729964 39.95557463 25.59588335 40.186942 22 39 C19.66406412 36.11120155 17.86124096 33.33697641 16.13305664 30.06787109 C15.00557824 27.9035099 15.00557824 27.9035099 13 25 C11.35 24.67 9.7 24.34 8 24 C8 28.62 8 33.24 8 38 C5.36 38 2.72 38 0 38 C0 25.46 0 12.92 0 0 Z " fill="#FAFCF7" transform="translate(98,165)"/>
<path d="M0 0 C1.51400391 0.01740234 1.51400391 0.01740234 3.05859375 0.03515625 C4.07050781 0.04417969 5.08242188 0.05320313 6.125 0.0625 C7.29869141 0.07990234 7.29869141 0.07990234 8.49609375 0.09765625 C10.35361675 5.1674628 12.20485887 10.23950121 14.05029297 15.3137207 C14.67909982 17.03993671 15.3096248 18.76552786 15.94189453 20.49047852 C16.8498956 22.96859445 17.75171386 25.44888467 18.65234375 27.9296875 C18.93670288 28.7016597 19.22106201 29.4736319 19.51403809 30.26899719 C20.62205772 33.33639461 21.49609375 35.80971744 21.49609375 39.09765625 C18.52609375 39.09765625 15.55609375 39.09765625 12.49609375 39.09765625 C11.50609375 36.45765625 10.51609375 33.81765625 9.49609375 31.09765625 C2.56609375 30.60265625 2.56609375 30.60265625 -4.50390625 30.09765625 C-5.16390625 33.06765625 -5.82390625 36.03765625 -6.50390625 39.09765625 C-9.80390625 39.09765625 -13.10390625 39.09765625 -16.50390625 39.09765625 C-14.29492077 31.43935227 -11.75195034 23.93692866 -9.06005859 16.43530273 C-8.36932172 14.5084192 -7.68447053 12.57950782 -7 10.65039062 C-6.56558594 9.43544922 -6.13117188 8.22050781 -5.68359375 6.96875 C-5.28897949 5.8645874 -4.89436523 4.7604248 -4.48779297 3.62280273 C-3.12368921 0.12182875 -3.12368921 0.12182875 0 0 Z " fill="#F7FAF2" transform="translate(262.50390625,164.90234375)"/>
<path d="M0 0 C0.9178125 -0.00515625 1.835625 -0.0103125 2.78125 -0.015625 C5.6778282 0.26737402 7.86375653 1.04649755 10.5 2.25 C10.5 4.89 10.5 7.53 10.5 10.25 C9.96246094 10.09273437 9.42492187 9.93546875 8.87109375 9.7734375 C4.12351298 8.72537189 -0.68444065 8.64476576 -5.5 9.25 C-8.47361086 11.46563162 -9.86959793 12.98919585 -11.5 16.25 C-11.87464112 21.8696168 -11.63609371 25.371632 -8.5 30.25 C-5.41111478 32.30925681 -4.79064073 32.4890374 -1.3125 32.375 C-0.054375 32.33375 1.20375 32.2925 2.5 32.25 C2.83 29.61 3.16 26.97 3.5 24.25 C1.19 24.25 -1.12 24.25 -3.5 24.25 C-3.5 21.94 -3.5 19.63 -3.5 17.25 C1.78 17.25 7.06 17.25 12.5 17.25 C12.5 23.85 12.5 30.45 12.5 37.25 C4.66855192 40.18679303 -2.53491833 42.17622429 -10.75 39.5234375 C-15.85958035 36.81447895 -19.30401606 32.52036145 -21.5 27.25 C-22.29364301 20.79011504 -22.18107212 14.63930209 -18.8359375 8.93359375 C-14.15938216 3.0400401 -7.45604916 -0.04188792 0 0 Z " fill="#F8FBF3" transform="translate(77.5,163.75)"/>
<path d="M0 0 C7.26 0 14.52 0 22 0 C22 2.31 22 4.62 22 7 C17.71 7 13.42 7 9 7 C9 9.97 9 12.94 9 16 C12.96 16 16.92 16 21 16 C21 18.31 21 20.62 21 23 C17.04 23 13.08 23 9 23 C9 25.64 9 28.28 9 31 C13.62 31 18.24 31 23 31 C23 33.64 23 36.28 23 39 C15.41 39 7.82 39 0 39 C0 26.13 0 13.26 0 0 Z " fill="#F7FAF2" transform="translate(163,165)"/>
<path d="M0 0 C7.26 0 14.52 0 22 0 C22 2.31 22 4.62 22 7 C17.38 7 12.76 7 8 7 C8 9.97 8 12.94 8 16 C12.29 16 16.58 16 21 16 C21 18.31 21 20.62 21 23 C16.71 23 12.42 23 8 23 C8 25.97 8 28.94 8 32 C12.95 32 17.9 32 23 32 C23 33.98 23 35.96 23 38 C15.41 38 7.82 38 0 38 C0 25.46 0 12.92 0 0 Z " fill="#FCFDFB" transform="translate(134,165)"/>
<path d="M0 0 C0.33 0 0.66 0 1 0 C1 7.92 1 15.84 1 24 C2.32 24 3.64 24 5 24 C5 27.63 5 31.26 5 35 C3.68 35 2.36 35 1 35 C1 37.97 1 40.94 1 44 C2.32 44 3.64 44 5 44 C5 47.96 5 51.92 5 56 C3.68 56 2.36 56 1 56 C1.08746284 57.43861294 1.19565348 58.87597508 1.3125 60.3125 C1.37050781 61.11300781 1.42851563 61.91351563 1.48828125 62.73828125 C1.79547323 65.07689411 1.79547323 65.07689411 3.53125 66.4375 C5 68 5 68 5.29296875 70.69921875 C5.25816406 71.68535156 5.22335938 72.67148438 5.1875 73.6875 C5.16042969 74.68136719 5.13335937 75.67523438 5.10546875 76.69921875 C5.07066406 77.45847656 5.03585938 78.21773438 5 79 C3.68 79 2.36 79 1 79 C1.185625 80.299375 1.37125 81.59875 1.5625 82.9375 C1.87890625 85.15234375 1.87890625 85.15234375 2 87 C1.505 87.495 1.505 87.495 1 88 C0.76807135 89.51469448 0.58784762 91.03754562 0.4375 92.5625 C0.35371094 93.38878906 0.26992187 94.21507813 0.18359375 95.06640625 C0.12300781 95.70449219 0.06242187 96.34257813 0 97 C-1.32 97 -2.64 97 -4 97 C-4 93.37 -4 89.74 -4 86 C-2.68 86 -1.36 86 0 86 C-0.103125 84.72125 -0.20625 83.4425 -0.3125 82.125 C-0.37050781 81.40570313 -0.42851563 80.68640625 -0.48828125 79.9453125 C-0.87393036 77.60480784 -0.87393036 77.60480784 -4 76 C-4.29296875 73.1796875 -4.29296875 73.1796875 -4.1875 69.875 C-4.16042969 68.77929688 -4.13335937 67.68359375 -4.10546875 66.5546875 C-4.07066406 65.71164063 -4.03585938 64.86859375 -4 64 C-2.68 64.33 -1.36 64.66 0 65 C-0.0870005 63.37399059 -0.1951781 61.74910322 -0.3125 60.125 C-0.37050781 59.22007813 -0.42851563 58.31515625 -0.48828125 57.3828125 C-0.7882039 54.63778399 -0.7882039 54.63778399 -4 53 C-4.40843923 50.28796348 -4.13336867 47.7562858 -4 45 C-2.515 44.505 -2.515 44.505 -1 44 C-0.67 41.03 -0.34 38.06 0 35 C-1.32 35 -2.64 35 -4 35 C-4 31.7 -4 28.4 -4 25 C-2.68 24.67 -1.36 24.34 0 24 C0 21.36 0 18.72 0 16 C-1.32 15.67 -2.64 15.34 -4 15 C-2.68 15 -1.36 15 0 15 C0 10.05 0 5.1 0 0 Z " fill="#C8DA8D" transform="translate(126,23)"/>
<path d="M0 0 C2.97 0 5.94 0 9 0 C9 12.87 9 25.74 9 39 C6.03 39 3.06 39 0 39 C0 26.13 0 13.26 0 0 Z " fill="#F5FBEE" transform="translate(233,165)"/>
<path d="M0 0 C9 0 9 0 12.5 2.375 C16.3803601 6.4493781 16.28161812 9.07358032 16.21875 14.51953125 C15.93537507 17.73280049 15.12264382 19.57412135 13 22 C9 24 9 24 0 24 C0 16.08 0 8.16 0 0 Z " fill="#53A804" transform="translate(201,172)"/>
<path d="M0 0 C6.40818182 -0.36272727 6.40818182 -0.36272727 8.9375 1.1875 C10.38718434 3.66049093 10.42317323 5.17884512 10 8 C8.9375 9.8125 8.9375 9.8125 7 11 C3.3125 11.1875 3.3125 11.1875 0 11 C0 7.37 0 3.74 0 0 Z " fill="#5AAB14" transform="translate(106,171)"/>
<path d="M0 0 C1.32 0 2.64 0 4 0 C4 3.63 4 7.26 4 11 C2.68 11 1.36 11 0 11 C0 13.97 0 16.94 0 20 C1.32 20 2.64 20 4 20 C4 21.98 4 23.96 4 26 C3.67 26 3.34 26 3 26 C3 24.35 3 22.7 3 21 C2.01 21 1.02 21 0 21 C0 25.62 0 30.24 0 35 C-0.33 35 -0.66 35 -1 35 C-1 27.08 -1 19.16 -1 11 C-1.66 10.67 -2.32 10.34 -3 10 C-2.34 10 -1.68 10 -1 10 C-1.01160156 9.36191406 -1.02320312 8.72382812 -1.03515625 8.06640625 C-1.04417969 7.24011719 -1.05320312 6.41382812 -1.0625 5.5625 C-1.07410156 4.73878906 -1.08570312 3.91507812 -1.09765625 3.06640625 C-1 1 -1 1 0 0 Z " fill="#C5DF98" transform="translate(127,110)"/>
<path d="M0 0 C0.66 0 1.32 0 2 0 C2.6700834 2.12392506 3.33596797 4.24917524 4 6.375 C4.37125 7.55835938 4.7425 8.74171875 5.125 9.9609375 C6 13 6 13 6 15 C3.03 15 0.06 15 -3 15 C-2.35812082 9.86496656 -1.31727753 5.0056546 0 0 Z " fill="#5AAB13" transform="translate(264,173)"/>
<path d="M0 0 C4.24846075 0.47205119 6.26819288 2.88877522 9 6 C9 6.66 9 7.32 9 8 C6.03 8 3.06 8 0 8 C0 5.36 0 2.72 0 0 Z " fill="#EDF6DB" transform="translate(136,95)"/>
<path d="M0 0 C1.32 0.33 2.64 0.66 4 1 C4 5.29 4 9.58 4 14 C2.68 13.34 1.36 12.68 0 12 C0 8.04 0 4.08 0 0 Z " fill="#53A608" transform="translate(122,87)"/>
<path d="M0 0 C1.98 0.99 1.98 0.99 4 2 C4 5.63 4 9.26 4 13 C2.68 12.67 1.36 12.34 0 12 C0 8.04 0 4.08 0 0 Z " fill="#F6F8EB" transform="translate(127,89)"/>
<path d="M0 0 C1.32 0.33 2.64 0.66 4 1 C4 4.3 4 7.6 4 11 C2.68 11 1.36 11 0 11 C0 7.37 0 3.74 0 0 Z " fill="#50A506" transform="translate(122,109)"/>
<path d="M0 0 C1.32 0 2.64 0 4 0 C4 3.3 4 6.6 4 10 C2.68 10 1.36 10 0 10 C0 6.7 0 3.4 0 0 Z " fill="#50A405" transform="translate(122,48)"/>
<path d="M0 0 C1.32 0 2.64 0 4 0 C4 2.97 4 5.94 4 9 C2.68 8.67 1.36 8.34 0 8 C0 5.36 0 2.72 0 0 Z " fill="#55AA11" transform="translate(122,68)"/>
<path d="M0 0 C0.99 0 1.98 0 3 0 C3 3.63 3 7.26 3 11 C2.01 10.67 1.02 10.34 0 10 C0 6.7 0 3.4 0 0 Z " fill="#FEFEFE" transform="translate(127,68)"/>
<path d="M0 0 C0.99 0 1.98 0 3 0 C3 3.3 3 6.6 3 10 C2.01 10 1.02 10 0 10 C0 6.7 0 3.4 0 0 Z " fill="#FEFEFD" transform="translate(127,110)"/>
<path d="M0 0 C0.99 0 1.98 0 3 0 C3 3.3 3 6.6 3 10 C2.01 10 1.02 10 0 10 C0 6.7 0 3.4 0 0 Z " fill="#FEFEFD" transform="translate(127,48)"/>
<path d="M0 0 C0.99 0 1.98 0 3 0 C3 2.64 3 5.28 3 8 C1.68 7.01 0.36 6.02 -1 5 C-0.67 3.35 -0.34 1.7 0 0 Z " fill="#46A103" transform="translate(113,85)"/>
</svg>
